<svg xmlns="http://www.w3.org/2000/svg" viewBox="0 0 512 512">
  <rect width="512" height="512" rx="115" ry="115" fill="#0d0dff"/>
  <path fill="#ffffff" d="M 140.0,174.0 L 159.4,229.3 L 217.99,230.66 L 171.38,266.2 L 188.2,322.34 L 140.0,289.0 L 91.8,322.34 L 108.62,266.2 L 62.01,230.66 L 120.6,229.3 Z"/>
  <path fill="#ffffff" d="M 272.0,174.0 L 291.4,229.3 L 349.99,230.66 L 303.38,266.2 L 320.2,322.34 L 272.0,289.0 L 223.8,322.34 L 240.62,266.2 L 194.01,230.66 L 252.6,229.3 Z"/>
  <path fill="#ffffff" transform="translate(315,180) scale(4.6875)" d="M23.6,0c-3.4,0-6.3,2.7-7.6,5.6C14.7,2.7,11.8,0,8.4,0C3.8,0,0,3.8,0,8.4c0,9.4,9.5,11.9,16,21.4 c6.5-9.5,16-12,16-21.4C32,3.8,28.2,0,23.6,0z"/>
</svg>
